<svg width="244" height="76" viewBox="0 0 244 76" fill="none" xmlns="http://www.w3.org/2000/svg">
<path d="M3.024 4.12H10.08V20.344H18V4.12H25.104V43H18V25.432H10.08V43H3.024V4.12ZM39.021 43.432C35.949 43.432 33.693 42.584 32.253 40.888C30.813 39.16 30.093 36.616 30.093 33.256V25C30.093 21.608 30.813 19.064 32.253 17.368C33.725 15.672 35.981 14.824 39.021 14.824C42.157 14.824 44.365 15.704 45.645 17.464C46.957 19.224 47.613 21.88 47.613 25.432V29.416H36.573V34.888C36.573 36.232 36.765 37.208 37.149 37.816C37.565 38.424 38.205 38.728 39.069 38.728C39.901 38.728 40.493 38.44 40.845 37.864C41.229 37.256 41.421 36.344 41.421 35.128V32.776H47.565V34.696C47.565 37.544 46.845 39.72 45.405 41.224C43.965 42.696 41.837 43.432 39.021 43.432ZM41.421 26.2V23.56C41.421 22.12 41.245 21.096 40.893 20.488C40.541 19.848 39.917 19.528 39.021 19.528C38.093 19.528 37.453 19.864 37.101 20.536C36.749 21.208 36.573 22.456 36.573 24.28V26.2H41.421ZM52.4749 4.12H58.9549V43H52.4749V4.12ZM64.5686 4.12H71.0486V43H64.5686V4.12ZM83.7664 43.432C81.4304 43.432 79.5104 42.808 78.0064 41.56C76.5024 40.312 75.4304 38.488 74.7904 36.088L79.6384 34.216C80.3744 37.32 81.7184 38.872 83.6704 38.872C84.4064 38.872 84.9664 38.68 85.3504 38.296C85.7664 37.912 85.9744 37.384 85.9744 36.712C85.9744 35.976 85.7504 35.304 85.3024 34.696C84.8544 34.056 84.0544 33.256 82.9024 32.296L79.5904 29.416C78.1824 28.264 77.1424 27.144 76.4704 26.056C75.7984 24.968 75.4624 23.64 75.4624 22.072C75.4624 19.896 76.1984 18.152 77.6704 16.84C79.1744 15.496 81.0624 14.824 83.3344 14.824C85.5104 14.824 87.2864 15.48 88.6624 16.792C90.0384 18.072 90.9344 19.816 91.3504 22.024L87.0784 23.848C86.8224 22.568 86.3904 21.528 85.7824 20.728C85.2064 19.896 84.4544 19.48 83.5264 19.48C82.8544 19.48 82.3104 19.688 81.8944 20.104C81.5104 20.52 81.3184 21.048 81.3184 21.688C81.3184 22.2 81.5424 22.744 81.9904 23.32C82.4384 23.896 83.1104 24.568 84.0064 25.336L87.3664 28.408C88.8064 29.656 89.9104 30.856 90.6784 32.008C91.4784 33.128 91.8784 34.488 91.8784 36.088C91.8784 38.424 91.1104 40.232 89.5744 41.512C88.0704 42.792 86.1344 43.432 83.7664 43.432ZM107.553 4.12H117.153C120.833 4.12 123.649 4.872 125.601 6.376C127.553 7.88 128.529 10.456 128.529 14.104C128.529 16.472 128.049 18.328 127.089 19.672C126.129 20.984 124.737 21.784 122.913 22.072C127.393 22.936 129.633 26.136 129.633 31.672C129.633 35.416 128.721 38.248 126.897 40.168C125.073 42.056 122.369 43 118.785 43H107.553V4.12ZM117.057 20.008C119.105 20.008 120.497 19.56 121.233 18.664C122.001 17.736 122.385 16.248 122.385 14.2C122.385 12.216 121.889 10.872 120.897 10.168C119.937 9.432 118.321 9.064 116.049 9.064H114.609V20.008H117.057ZM117.345 38.008C119.425 38.008 120.865 37.512 121.665 36.52C122.465 35.528 122.865 33.896 122.865 31.624C122.865 29.288 122.417 27.592 121.521 26.536C120.657 25.448 119.185 24.904 117.105 24.904H114.609V38.008H117.345ZM142.24 43.432C139.168 43.432 136.912 42.584 135.472 40.888C134.032 39.16 133.312 36.616 133.312 33.256V25C133.312 21.608 134.032 19.064 135.472 17.368C136.944 15.672 139.2 14.824 142.24 14.824C145.376 14.824 147.584 15.704 148.864 17.464C150.176 19.224 150.832 21.88 150.832 25.432V29.416H139.792V34.888C139.792 36.232 139.984 37.208 140.368 37.816C140.784 38.424 141.424 38.728 142.288 38.728C143.12 38.728 143.712 38.44 144.064 37.864C144.448 37.256 144.64 36.344 144.64 35.128V32.776H150.784V34.696C150.784 37.544 150.064 39.72 148.624 41.224C147.184 42.696 145.056 43.432 142.24 43.432ZM144.64 26.2V23.56C144.64 22.12 144.464 21.096 144.112 20.488C143.76 19.848 143.136 19.528 142.24 19.528C141.312 19.528 140.672 19.864 140.32 20.536C139.968 21.208 139.792 22.456 139.792 24.28V26.2H144.64ZM155.694 4.12H162.174V43H155.694V4.12ZM167.787 4.12H174.267V43H167.787V4.12ZM186.985 43.432C184.649 43.432 182.729 42.808 181.225 41.56C179.721 40.312 178.649 38.488 178.009 36.088L182.857 34.216C183.593 37.32 184.937 38.872 186.889 38.872C187.625 38.872 188.185 38.68 188.569 38.296C188.985 37.912 189.193 37.384 189.193 36.712C189.193 35.976 188.969 35.304 188.521 34.696C188.073 34.056 187.273 33.256 186.121 32.296L182.809 29.416C181.401 28.264 180.361 27.144 179.689 26.056C179.017 24.968 178.681 23.64 178.681 22.072C178.681 19.896 179.417 18.152 180.889 16.84C182.393 15.496 184.281 14.824 186.553 14.824C188.729 14.824 190.505 15.48 191.881 16.792C193.257 18.072 194.153 19.816 194.569 22.024L190.297 23.848C190.041 22.568 189.609 21.528 189.001 20.728C188.425 19.896 187.673 19.48 186.745 19.48C186.073 19.48 185.529 19.688 185.113 20.104C184.729 20.52 184.537 21.048 184.537 21.688C184.537 22.2 184.761 22.744 185.209 23.32C185.657 23.896 186.329 24.568 187.225 25.336L190.585 28.408C192.025 29.656 193.129 30.856 193.897 32.008C194.697 33.128 195.097 34.488 195.097 36.088C195.097 38.424 194.329 40.232 192.793 41.512C191.289 42.792 189.353 43.432 186.985 43.432Z" fill="#13181B"/>
<path d="M187.408 52.176H184.312V49.56H193.984V52.176H190.96V69H187.408V52.176ZM197.92 69.216C197.328 69.216 196.8 69.056 196.336 68.736C195.888 68.416 195.536 68.008 195.28 67.512C195.04 67 194.92 66.472 194.92 65.928C194.92 64.856 195.168 63.976 195.664 63.288C196.176 62.584 196.8 62.04 197.536 61.656C198.288 61.272 199.28 60.848 200.512 60.384V59.184C200.512 58.544 200.432 58.08 200.272 57.792C200.128 57.488 199.84 57.336 199.408 57.336C198.672 57.336 198.288 57.848 198.256 58.872L198.208 59.712L195.112 59.592C195.16 57.992 195.552 56.816 196.288 56.064C197.04 55.296 198.168 54.912 199.672 54.912C201.032 54.912 202.04 55.288 202.696 56.04C203.352 56.776 203.68 57.824 203.68 59.184V65.592C203.68 66.584 203.76 67.72 203.92 69H200.992C200.832 68.136 200.72 67.472 200.656 67.008C200.464 67.632 200.136 68.16 199.672 68.592C199.224 69.008 198.64 69.216 197.92 69.216ZM199.12 66.792C199.392 66.792 199.648 66.696 199.888 66.504C200.144 66.312 200.352 66.104 200.512 65.88V61.992C199.664 62.488 199.032 62.968 198.616 63.432C198.2 63.88 197.992 64.448 197.992 65.136C197.992 65.648 198.088 66.056 198.28 66.36C198.488 66.648 198.768 66.792 199.12 66.792ZM209.975 69.168C208.711 69.168 207.815 68.864 207.287 68.256C206.775 67.648 206.519 66.744 206.519 65.544V57.264H205.127V55.128H206.519V50.976H209.807V55.128H211.895V57.264H209.807V65.256C209.807 65.72 209.903 66.056 210.095 66.264C210.303 66.472 210.623 66.576 211.055 66.576C211.455 66.576 211.791 66.544 212.063 66.48V69C211.423 69.112 210.727 69.168 209.975 69.168ZM217.944 69.168C216.68 69.168 215.784 68.864 215.256 68.256C214.744 67.648 214.488 66.744 214.488 65.544V57.264H213.096V55.128H214.488V50.976H217.776V55.128H219.864V57.264H217.776V65.256C217.776 65.72 217.872 66.056 218.064 66.264C218.272 66.472 218.592 66.576 219.023 66.576C219.424 66.576 219.76 66.544 220.032 66.48V69C219.392 69.112 218.696 69.168 217.944 69.168ZM226.104 69.216C224.616 69.216 223.504 68.808 222.768 67.992C222.032 67.16 221.664 65.96 221.664 64.392V59.736C221.664 58.168 222.032 56.976 222.768 56.16C223.504 55.328 224.616 54.912 226.104 54.912C227.592 54.912 228.704 55.328 229.44 56.16C230.192 56.976 230.568 58.168 230.568 59.736V64.392C230.568 65.96 230.192 67.16 229.44 67.992C228.704 68.808 227.592 69.216 226.104 69.216ZM226.128 66.96C226.624 66.96 226.952 66.768 227.112 66.384C227.272 65.984 227.352 65.4 227.352 64.632V59.52C227.352 58.752 227.272 58.168 227.112 57.768C226.952 57.368 226.624 57.168 226.128 57.168C225.616 57.168 225.28 57.368 225.12 57.768C224.96 58.168 224.88 58.752 224.88 59.52V64.632C224.88 65.4 224.96 65.984 225.12 66.384C225.28 66.768 225.616 66.96 226.128 66.96ZM237.026 69.216C235.538 69.216 234.426 68.808 233.69 67.992C232.954 67.16 232.586 65.96 232.586 64.392V59.736C232.586 58.168 232.954 56.976 233.69 56.16C234.426 55.328 235.538 54.912 237.026 54.912C238.514 54.912 239.626 55.328 240.362 56.16C241.114 56.976 241.49 58.168 241.49 59.736V64.392C241.49 65.96 241.114 67.16 240.362 67.992C239.626 68.808 238.514 69.216 237.026 69.216ZM237.05 66.96C237.546 66.96 237.874 66.768 238.034 66.384C238.194 65.984 238.274 65.4 238.274 64.632V59.52C238.274 58.752 238.194 58.168 238.034 57.768C237.874 57.368 237.546 57.168 237.05 57.168C236.538 57.168 236.202 57.368 236.042 57.768C235.882 58.168 235.802 58.752 235.802 59.52V64.632C235.802 65.4 235.882 65.984 236.042 66.384C236.202 66.768 236.538 66.96 237.05 66.96Z" fill="#13181B"/>
</svg>
